<svg width="20" height="20" viewBox="0 0 20 20" fill="none" xmlns="http://www.w3.org/2000/svg">
<rect width="20" height="20" rx="5" fill="#7F54B3"/>
<path d="M2 14.4545V5H5.78551C6.48106 5 7.0612 5.1031 7.52592 5.3093C7.99065 5.51551 8.33996 5.80173 8.57386 6.16797C8.80777 6.53113 8.92472 6.94969 8.92472 7.42365C8.92472 7.79297 8.85085 8.11766 8.70313 8.39773C8.5554 8.67472 8.35227 8.90246 8.09375 9.08097C7.83831 9.25639 7.54593 9.38104 7.21662 9.4549V9.54723C7.5767 9.56262 7.91371 9.66418 8.22763 9.85192C8.54463 10.0397 8.80161 10.3028 8.99858 10.6413C9.19555 10.9768 9.29403 11.3769 9.29403 11.8416C9.29403 12.3433 9.16939 12.7911 8.9201 13.185C8.67389 13.5759 8.30919 13.8852 7.82599 14.1129C7.3428 14.3407 6.74728 14.4545 6.03942 14.4545H2ZM3.99893 12.8203H5.62855C6.18561 12.8203 6.59186 12.7141 6.8473 12.5018C7.10275 12.2863 7.23047 12.0001 7.23047 11.6431C7.23047 11.3815 7.16738 11.1507 7.04119 10.9506C6.91501 10.7506 6.73497 10.5936 6.50107 10.4798C6.27024 10.3659 5.99479 10.3089 5.67472 10.3089H3.99893V12.8203ZM3.99893 8.95632H5.48082C5.75473 8.95632 5.99787 8.90862 6.21023 8.81321C6.42566 8.71473 6.59493 8.57623 6.71804 8.39773C6.84422 8.21922 6.90732 8.00533 6.90732 7.75604C6.90732 7.41442 6.78575 7.13897 6.54261 6.92969C6.30256 6.72041 5.96094 6.61577 5.51776 6.61577H3.99893V8.95632Z" fill="white"/>
<path d="M10.2346 6.64808V5H17.9996V6.64808H15.105V14.4545H13.1292V6.64808H10.2346Z" fill="white"/>
</svg>
